<svg width="73" height="73" viewBox="0 0 73 73" fill="none" xmlns="http://www.w3.org/2000/svg">
<path d="M36.5002 50.1875C40.3022 50.1875 43.5345 48.8563 46.197 46.1938C48.8595 43.5313 50.1897 40.3001 50.1877 36.5C50.1877 32.6979 48.8564 29.4656 46.194 26.8032C43.5315 24.1407 40.3002 22.8105 36.5002 22.8125C32.6981 22.8125 29.4658 24.1437 26.8033 26.8062C24.1409 29.4687 22.8106 32.6999 22.8127 36.5C22.8127 40.3021 24.1439 43.5344 26.8064 46.1968C29.4688 48.8593 32.7001 50.1895 36.5002 50.1875ZM36.5002 39.5417C35.6384 39.5417 34.9155 39.2497 34.3315 38.6657C33.7475 38.0817 33.4565 37.3598 33.4585 36.5C33.4585 35.6382 33.7505 34.9153 34.3345 34.3313C34.9185 33.7473 35.6404 33.4563 36.5002 33.4583C37.362 33.4583 38.0849 33.7503 38.6689 34.3343C39.2529 34.9183 39.5439 35.6402 39.5418 36.5C39.5418 37.3618 39.2498 38.0847 38.6658 38.6687C38.0818 39.2527 37.3599 39.5437 36.5002 39.5417ZM36.5002 66.9167C32.2925 66.9167 28.3384 66.1177 24.6377 64.5198C20.937 62.9219 17.7179 60.7553 14.9804 58.0198C12.2429 55.2823 10.0762 52.0632 8.48033 48.3625C6.88447 44.6618 6.08552 40.7076 6.0835 36.5C6.0835 32.2924 6.88244 28.3382 8.48033 24.6375C10.0782 20.9368 12.2449 17.7177 14.9804 14.9802C17.7179 12.2427 20.937 10.076 24.6377 8.48016C28.3384 6.8843 32.2925 6.08536 36.5002 6.08333C40.7078 6.08333 44.662 6.88227 48.3627 8.48016C52.0634 10.0781 55.2825 12.2447 58.02 14.9802C60.7575 17.7177 62.9251 20.9368 64.523 24.6375C66.1209 28.3382 66.9189 32.2924 66.9168 36.5C66.9168 40.7076 66.1179 44.6618 64.52 48.3625C62.9221 52.0632 60.7554 55.2823 58.02 58.0198C55.2825 60.7573 52.0634 62.925 48.3627 64.5229C44.662 66.1208 40.7078 66.9187 36.5002 66.9167ZM36.5002 60.8333C43.2932 60.8333 49.047 58.476 53.7616 53.7615C58.4762 49.0469 60.8335 43.2931 60.8335 36.5C60.8335 29.7069 58.4762 23.9531 53.7616 19.2385C49.047 14.524 43.2932 12.1667 36.5002 12.1667C29.7071 12.1667 23.9533 14.524 19.2387 19.2385C14.5241 23.9531 12.1668 29.7069 12.1668 36.5C12.1668 43.2931 14.5241 49.0469 19.2387 53.7615C23.9533 58.476 29.7071 60.8333 36.5002 60.8333Z" fill="#550B5E"/>
</svg>
