<svg width="69" height="69" viewBox="0 0 69 69" fill="none" xmlns="http://www.w3.org/2000/svg">
<path d="M34.4735 34.3949C30.123 34.3949 26.3987 32.8458 23.3006 29.7478C20.2025 26.6497 18.6535 22.9254 18.6535 18.5749C18.6535 14.2244 20.2025 10.5001 23.3006 7.40202C26.3987 4.30394 30.123 2.7549 34.4735 2.7549C38.824 2.7549 42.5483 4.30394 45.6463 7.40202C48.7444 10.5001 50.2935 14.2244 50.2935 18.5749C50.2935 22.9254 48.7444 26.6497 45.6463 29.7478C42.5483 32.8458 38.824 34.3949 34.4735 34.3949ZM2.8335 66.0349V54.9609C2.8335 52.7197 3.41093 50.6591 4.56579 48.7792C5.72064 46.8993 7.25255 45.4662 9.16149 44.4801C13.2483 42.4367 17.4011 40.9035 21.6197 39.8805C25.8384 38.8574 30.123 38.3472 34.4735 38.3499C38.824 38.3499 43.1085 38.8614 47.3272 39.8844C51.5459 40.9074 55.6986 42.4393 59.7854 44.4801C61.697 45.4689 63.2303 46.9032 64.3851 48.7832C65.54 50.6631 66.1161 52.7223 66.1134 54.9609V66.0349H2.8335ZM10.7435 58.1249H58.2035V54.9609C58.2035 54.2358 58.0215 53.5766 57.6577 52.9834C57.2938 52.3901 56.8166 51.9287 56.226 51.5991C52.6665 49.8194 49.074 48.4852 45.4486 47.5967C41.8232 46.7081 38.1648 46.2625 34.4735 46.2599C30.7821 46.2599 27.1238 46.7055 23.4984 47.5967C19.8729 48.4879 16.2805 49.822 12.721 51.5991C12.1277 51.9287 11.6492 52.3901 11.2853 52.9834C10.9215 53.5766 10.7409 54.2358 10.7435 54.9609V58.1249ZM34.4735 26.4849C36.6487 26.4849 38.5115 25.7097 40.0619 24.1593C41.6122 22.609 42.3861 20.7475 42.3835 18.5749C42.3835 16.3996 41.6083 14.5368 40.0579 12.9865C38.5076 11.4361 36.6461 10.6623 34.4735 10.6649C32.2982 10.6649 30.4354 11.4401 28.8851 12.9904C27.3347 14.5408 26.5608 16.4023 26.5635 18.5749C26.5635 20.7501 27.3387 22.6129 28.889 24.1633C30.4394 25.7137 32.3009 26.4875 34.4735 26.4849Z" fill="#550B5E"/>
</svg>
