<svg width="67" height="68" viewBox="0 0 67 68" fill="none" xmlns="http://www.w3.org/2000/svg">
<path d="M33.3775 66.1395C28.9746 66.1395 24.8369 65.2929 20.9645 63.5996C17.0921 61.9064 13.7236 59.6105 10.8591 56.7119C7.99452 53.8111 5.72729 50.3999 4.05738 46.4785C2.38746 42.557 1.55144 38.367 1.54932 33.9083C1.54932 29.4497 2.38534 25.2596 4.05738 21.3382C5.72942 17.4167 7.99664 14.0056 10.8591 11.1048C13.7236 8.204 17.0921 5.90807 20.9645 4.21701C24.8369 2.52595 28.9746 1.67935 33.3775 1.6772C37.7804 1.6772 41.918 2.5238 45.7905 4.21701C49.6629 5.91022 53.0314 8.20615 55.8959 11.1048C58.7605 14.0056 61.0287 17.4167 62.7008 21.3382C64.3728 25.2596 65.2078 29.4497 65.2057 33.9083C65.2057 38.367 64.3696 42.557 62.6976 46.4785C61.0256 50.3999 58.7583 53.8111 55.8959 56.7119C53.0314 59.6127 49.6629 61.9097 45.7905 63.6029C41.918 65.2961 37.7804 66.1416 33.3775 66.1395ZM33.3775 59.6932C40.4858 59.6932 46.5066 57.1953 51.44 52.1995C56.3733 47.2037 58.84 41.1066 58.84 33.9083C58.84 26.71 56.3733 20.613 51.44 15.6172C46.5066 10.6213 40.4858 8.12343 33.3775 8.12343C26.2692 8.12343 20.2484 10.6213 15.315 15.6172C10.3816 20.613 7.91495 26.71 7.91495 33.9083C7.91495 41.1066 10.3816 47.2037 15.315 52.1995C20.2484 57.1953 26.2692 59.6932 33.3775 59.6932Z" fill="#550B5E"/>
<path d="M27.0119 53.247C29.6642 53.247 31.9187 52.3069 33.7753 50.4268C35.632 48.5466 36.5603 46.2636 36.5603 43.5777V21.0159H42.9259C43.8277 21.0159 44.5842 20.7065 45.1953 20.0876C45.8064 19.4688 46.1109 18.7038 46.1088 17.7928C46.1088 16.8796 45.8032 16.1135 45.1921 15.4947C44.581 14.8758 43.8256 14.5675 42.9259 14.5697H33.3775C32.4757 14.5697 31.7192 14.8791 31.1081 15.4979C30.497 16.1167 30.1925 16.8817 30.1947 17.7928V35.1976C30.1947 35.1976 28.4828 34.2436 26.7898 34.2436C24.1375 34.2436 22.105 34.8484 20.2484 36.7286C18.3917 38.6087 17.4634 40.8917 17.4634 43.5777C17.4634 46.2636 18.3917 48.5466 20.2484 50.4268C22.105 52.3069 24.3595 53.247 27.0119 53.247Z" fill="#550B5E"/>
</svg>
