<svg width="83" height="83" viewBox="0 0 83 83" fill="none" xmlns="http://www.w3.org/2000/svg">
<path d="M67.0407 10.6316H59.3388V8.06428C59.3388 7.38339 59.0683 6.73039 58.5869 6.24892C58.1054 5.76746 57.4524 5.49698 56.7715 5.49698C56.0906 5.49698 55.4376 5.76746 54.9561 6.24892C54.4747 6.73039 54.2042 7.38339 54.2042 8.06428V10.6316H28.5312V8.06428C28.5312 7.38339 28.2607 6.73039 27.7792 6.24892C27.2978 5.76746 26.6448 5.49698 25.9639 5.49698C25.283 5.49698 24.63 5.76746 24.1485 6.24892C23.6671 6.73039 23.3966 7.38339 23.3966 8.06428V10.6316H15.6947C14.3329 10.6316 13.0269 11.1725 12.0639 12.1355C11.101 13.0984 10.5601 14.4044 10.5601 15.7662V67.1122C10.5601 68.474 11.101 69.78 12.0639 70.7429C13.0269 71.7059 14.3329 72.2468 15.6947 72.2468H67.0407C68.4025 72.2468 69.7085 71.7059 70.6714 70.7429C71.6343 69.78 72.1753 68.474 72.1753 67.1122V15.7662C72.1753 14.4044 71.6343 13.0984 70.6714 12.1355C69.7085 11.1725 68.4025 10.6316 67.0407 10.6316ZM23.3966 15.7662V18.3335C23.3966 19.0144 23.6671 19.6674 24.1485 20.1488C24.63 20.6303 25.283 20.9008 25.9639 20.9008C26.6448 20.9008 27.2978 20.6303 27.7792 20.1488C28.2607 19.6674 28.5312 19.0144 28.5312 18.3335V15.7662H54.2042V18.3335C54.2042 19.0144 54.4747 19.6674 54.9561 20.1488C55.4376 20.6303 56.0906 20.9008 56.7715 20.9008C57.4524 20.9008 58.1054 20.6303 58.5869 20.1488C59.0683 19.6674 59.3388 19.0144 59.3388 18.3335V15.7662H67.0407V26.0354H15.6947V15.7662H23.3966ZM67.0407 67.1122H15.6947V31.17H67.0407V67.1122ZM36.2331 38.8719V59.4103C36.2331 60.0912 35.9626 60.7442 35.4811 61.2257C34.9997 61.7071 34.3467 61.9776 33.6658 61.9776C32.9849 61.9776 32.3319 61.7071 31.8504 61.2257C31.369 60.7442 31.0985 60.0912 31.0985 59.4103V43.0245L29.68 43.7369C29.0706 44.0416 28.3652 44.0918 27.7188 43.8763C27.0724 43.6609 26.5381 43.1975 26.2334 42.5881C25.9287 41.9787 25.8786 41.2732 26.0941 40.6268C26.3095 39.9805 26.7729 39.4462 27.3823 39.1415L32.5169 36.5742C32.9085 36.3782 33.3436 36.2857 33.781 36.3054C34.2184 36.325 34.6435 36.4562 35.0159 36.6865C35.3883 36.9167 35.6957 37.2384 35.9087 37.6209C36.1217 38.0034 36.2334 38.4341 36.2331 38.8719ZM55.2183 48.6437L49.0696 56.843H54.2042C54.8851 56.843 55.5381 57.1135 56.0196 57.595C56.501 58.0764 56.7715 58.7294 56.7715 59.4103C56.7715 60.0912 56.501 60.7442 56.0196 61.2257C55.5381 61.7071 54.8851 61.9776 54.2042 61.9776H43.935C43.4582 61.9776 42.9908 61.8449 42.5853 61.5942C42.1797 61.3435 41.8519 60.9849 41.6387 60.5585C41.4255 60.132 41.3352 59.6546 41.3781 59.1798C41.4209 58.7049 41.5951 58.2514 41.8811 57.8699L51.117 45.5565C51.3271 45.2769 51.4778 44.9572 51.5599 44.6172C51.642 44.2772 51.6538 43.924 51.5944 43.5793C51.5351 43.2345 51.406 42.9056 51.215 42.6126C51.0239 42.3195 50.7751 42.0687 50.4836 41.8753C50.1921 41.6819 49.8642 41.5501 49.52 41.4881C49.1757 41.426 48.8224 41.4349 48.4818 41.5143C48.1411 41.5937 47.8203 41.7418 47.5389 41.9496C47.2576 42.1575 47.0217 42.4206 46.8457 42.7229C46.6821 43.0241 46.4598 43.2896 46.1919 43.5036C45.9241 43.7176 45.6161 43.8757 45.2861 43.9688C44.9561 44.0618 44.6109 44.0877 44.2707 44.0452C43.9305 44.0026 43.6023 43.8923 43.3054 43.7208C43.0086 43.5494 42.7491 43.3202 42.5422 43.0468C42.3353 42.7734 42.1853 42.4613 42.1011 42.129C42.0168 41.7967 41.9999 41.4509 42.0514 41.1119C42.1029 40.773 42.2218 40.4478 42.401 40.1556C43.2491 38.688 44.5576 37.5412 46.1237 36.8928C47.6898 36.2445 49.426 36.1309 51.0632 36.5697C52.7004 37.0084 54.1472 37.975 55.1792 39.3195C56.2113 40.6641 56.7709 42.3115 56.7715 44.0065C56.7769 45.6809 56.2311 47.3104 55.2183 48.6437Z" fill="#550B5E"/>
</svg>
